PathFileType	4	(X/Y/Z)	/Users/itak/Documents/Research/Walk-IL/dataset/trc/00063_00006.trc
DataRate	CameraRate	NumFrames	NumMarkers	Units	OrigDataRate	OrigDataStartFrame	OrigNumFrames
100.000000	100.000000	4	53	mm	100.000000	435	697
Frame#	Time	RPSI			LPSI			L3			STRN			T10			C7			CLAV			RBAK			LBAK			LSHO			LUPA			LAEL			LAOL			LWTS			LWPS			LFRA			LIFD			LHPS			LHTS			RSHO			RUPA			RAEL			RAOL			RWTS			RWPS			RFRA			RIFD			RHTS			RHPS			RBHD			LFHD			RFHD			LBHD			LHIP			RHIP			RASI			LASI			LKNE			LTHI			LANK			LTIP			LTOE			LMT1			LMT5			LHEE			RKNE			RTHI			RANK			RTIP			RTOE			RMT1			RMT5			RHEE			
		X1	Y1	Z1	X2	Y2	Z2	X3	Y3	Z3	X4	Y4	Z4	X5	Y5	Z5	X6	Y6	Z6	X7	Y7	Z7	X8	Y8	Z8	X9	Y9	Z9	X10	Y10	Z10	X11	Y11	Z11	X12	Y12	Z12	X13	Y13	Z13	X14	Y14	Z14	X15	Y15	Z15	X16	Y16	Z16	X17	Y17	Z17	X18	Y18	Z18	X19	Y19	Z19	X20	Y20	Z20	X21	Y21	Z21	X22	Y22	Z22	X23	Y23	Z23	X24	Y24	Z24	X25	Y25	Z25	X26	Y26	Z26	X27	Y27	Z27	X28	Y28	Z28	X29	Y29	Z29	X30	Y30	Z30	X31	Y31	Z31	X32	Y32	Z32	X33	Y33	Z33	X34	Y34	Z34	X35	Y35	Z35	X36	Y36	Z36	X37	Y37	Z37	X38	Y38	Z38	X39	Y39	Z39	X40	Y40	Z40	X41	Y41	Z41	X42	Y42	Z42	X43	Y43	Z43	X44	Y44	Z44	X45	Y45	Z45	X46	Y46	Z46	X47	Y47	Z47	X48	Y48	Z48	X49	Y49	Z49	X50	Y50	Z50	X51	Y51	Z51	X52	Y52	Z52	X53	Y53	Z53	

436	4.350000000000001	20.62226867675781	1006.708740234375	-457.106689453125	86.13336944580078	993.5888671875	-296.822998046875	52.51199722290039	1058.096557617188	-369.1988220214844	-186.0931549072266	1263.802368164062	-289.8320922851562	69.90602874755859	1190.886962890625	-362.4711303710938	23.67331123352051	1459.13134765625	-339.3715515136719	-151.6577606201172	1377.375122070312	-293.701416015625	59.20311737060547	1321.124267578125	-429.5712890625	71.24854278564453	1419.095825195312	-249.4544372558594	-7.964051723480225	1424.3271484375	-151.4608917236328	30.25166702270508	1298.923095703125	-83.28192138671875	23.55851554870605	1085.641235351562	-52.41688537597656	51.71782684326172	1068.298583984375	-154.8705596923828	-97.44943237304688	852.5025634765625	-77.59496307373047	-22.77508354187012	838.5867309570312	-40.88309097290039	2.547609567642212	977.8198852539062	-36.28118133544922	-120.4192504882812	668.072998046875	-96.62277984619141	-57.66264724731445	758.1959838867188	-34.49626922607422	-120.525764465332	769.9506225585938	-69.08400726318359	-83.74586486816406	1430.566772460938	-490.841796875	-88.45701599121094	1366.258178710938	-556.7614135742188	-67.45670318603516	1114.010620117188	-627.290283203125	-63.88777923583984	1079.593139648438	-532.5045166015625	-209.9680633544922	864.8931274414062	-568.6570434570312	-154.4141235351562	849.8211669921875	-633.3295288085938	-85.49222564697266	1032.141723632812	-639.4652099609375	-206.9845733642578	673.2972412109375	-552.0209350585938	-240.2073516845703	761.2234497070312	-566.8059692382812	-187.5579376220703	759.6416625976562	-628.1151733398438	28.20184135437012	1626.593627929688	-327.5756530761719	-175.7898406982422	1690.714477539062	-302.7521057128906	-91.58240509033203	1686.393188476562	-208.7906341552734	-71.42967224121094	1625.56103515625	-422.1669921875	10.59692573547363	929.7289428710938	-182.6052551269531	-66.01851654052734	938.5751953125	-513.6619873046875	-179.471923828125	958.8658447265625	-459.6037292480469	-111.1231002807617	944.22216796875	-200.5299682617188	-195.6513519287109	498.3331909179688	-241.3466644287109	-111.7485885620117	617.5233154296875	-202.1160583496094	-160.9702758789062	44.06804275512695	-328.3276062011719	-174.3516082763672	246.7605743408203	-275.3789978027344	-354.6182861328125	41.03739166259766	-257.7626647949219	-329.1199035644531	38.87894439697266	-324.6425170898438	-242.2565765380859	40.75521087646484	-254.0269165039062	-144.2364959716797	41.97058486938477	-420.1207885742188	-172.3692932128906	497.5921630859375	-513.6785888671875	-159.2056121826172	770.48681640625	-506.8149719238281	215.06689453125	210.3157196044922	-627.0111694335938	-92.34046173095703	406.7901000976562	-548.6012573242188	84.16886901855469	55.26153182983398	-580.345947265625	124.3589324951172	96.9637451171875	-542.9297485351562	138.2492370605469	115.5575256347656	-640.0447998046875	245.6939544677734	246.6120910644531	-572.7324829101562	
437	4.36	11.17650032043457	1006.942932128906	-454.3410949707031	79.03443145751953	994.573486328125	-295.01953125	44.58678817749023	1059.043212890625	-366.5754699707031	-193.4150390625	1264.541748046875	-284.4159851074219	61.99627685546875	1191.861206054688	-359.7646179199219	15.64011669158936	1460.065795898438	-336.0788269042969	-159.1924591064453	1378.135131835938	-288.6846008300781	50.32214736938477	1322.060424804688	-426.6035461425781	64.21613311767578	1420.001831054688	-246.5576324462891	-14.15893936157227	1425.0224609375	-147.8400573730469	24.24016761779785	1299.476684570312	-80.12093353271484	16.36575317382812	1086.255981445312	-48.49228286743164	44.2547721862793	1068.481323242188	-150.8878173828125	-108.2971954345703	855.1965942382812	-73.52823638916016	-33.63584136962891	839.6681518554688	-37.20034790039062	-6.084936618804932	978.6567993164062	-32.35107803344727	-136.2238616943359	671.7019653320312	-92.10062408447266	-70.38610076904297	760.15478515625	-30.6368408203125	-133.0233612060547	773.4661254882812	-64.57222747802734	-93.43867492675781	1431.245971679688	-486.4925537109375	-98.73785400390625	1366.914794921875	-552.3223876953125	-77.48085021972656	1114.84619140625	-623.0541381835938	-72.88440704345703	1080.290893554688	-528.34765625	-217.4599456787109	864.5512084960938	-563.6553955078125	-162.5579681396484	850.18896484375	-629.0073852539062	-95.17539978027344	1033.001953125	-635.18359375	-213.1154022216797	672.9425048828125	-547.9783325195312	-248.3607940673828	761.0244140625	-562.244140625	-195.0120849609375	759.7786865234375	-623.866943359375	20.14726448059082	1627.387451171875	-323.9703063964844	-183.2847137451172	1691.556640625	-296.9120483398438	-98.3836669921875	1687.171264648438	-203.8433685302734	-80.41178894042969	1626.5087890625	-417.5445556640625	5.690810203552246	930.5186767578125	-179.5152740478516	-76.89482116699219	938.8302612304688	-508.8470764160156	-188.9567413330078	959.8721923828125	-452.9570922851562	-116.2625503540039	945.0361328125	-195.2366027832031	-197.7504272460938	497.5131530761719	-238.4405670166016	-114.0324554443359	617.2365112304688	-199.7298431396484	-160.8682708740234	43.97196578979492	-328.2574157714844	-175.0554504394531	246.4285278320312	-274.2436218261719	-354.5691528320312	41.04277801513672	-257.5935668945312	-329.0679626464844	38.97526550292969	-324.500732421875	-242.2001495361328	40.41488265991211	-253.8492431640625	-144.3138275146484	42.11449813842773	-420.06103515625	-193.3789825439453	499.17822265625	-504.3097229003906	-173.3453826904297	771.9307250976562	-499.9589538574219	192.1338043212891	213.1444702148438	-625.9105224609375	-114.6028366088867	408.46484375	-540.4727783203125	60.78804779052734	59.26733779907227	-575.4573364257812	102.4192581176758	100.7883224487305	-539.3118896484375	113.7490158081055	119.4159545898438	-636.7250366210938	224.4218902587891	249.1764678955078	-572.5647583007812	
438	4.37	1.59328830242157	1007.473571777344	-451.5147399902344	71.92617797851562	995.7060546875	-293.2751159667969	36.61929702758789	1059.982055664062	-363.9844055175781	-200.553955078125	1265.392456054688	-278.9744873046875	54.25922775268555	1192.853637695312	-357.195556640625	7.766090393066406	1461.020385742188	-332.8199157714844	-166.5370483398438	1378.994995117188	-283.6609802246094	41.53645324707031	1323.015869140625	-423.6688232421875	57.35581207275391	1420.947143554688	-243.7440185546875	-20.11577796936035	1425.841186523438	-144.2745819091797	18.45571136474609	1300.135498046875	-77.03133392333984	9.318568229675293	1087.009643554688	-44.71573638916016	36.82051467895508	1068.79736328125	-147.0767974853516	-118.9450607299805	858.0670776367188	-69.38837432861328	-44.32928085327148	840.956787109375	-33.52774429321289	-14.57612228393555	979.6749877929688	-28.51388931274414	-151.8892211914062	675.5933227539062	-87.38447570800781	-82.93398284912109	762.3435668945312	-26.74069213867188	-145.2783660888672	777.2021484375	-59.90162658691406	-102.9458084106445	1432.046752929688	-482.120361328125	-108.8462219238281	1367.714233398438	-547.8687744140625	-87.32331085205078	1115.830444335938	-618.7435302734375	-81.77637481689453	1081.158081054688	-524.1150512695312	-224.8334503173828	864.36669921875	-558.69677734375	-170.6170196533203	850.7569580078125	-624.74365234375	-104.7049102783203	1034.013305664062	-630.8572998046875	-219.0891418457031	672.7252197265625	-544.1857299804688	-255.8407592773438	760.873046875	-557.7376708984375	-202.3910980224609	760.1270141601562	-619.7742919921875	12.1732120513916	1628.343872070312	-320.3829345703125	-190.7798919677734	1692.357788085938	-291.0780944824219	-105.141227722168	1687.962036132812	-198.9020690917969	-89.32893371582031	1627.54638671875	-412.9285583496094	0.934154748916626	931.400146484375	-176.4877777099609	-87.76183319091797	939.3761596679688	-504.0852966308594	-198.2842407226562	960.9629516601562	-446.1838684082031	-121.2610397338867	945.9496459960938	-189.9129028320312	-199.6245880126953	496.73388671875	-235.7128143310547	-116.1879577636719	617.0255737304688	-197.5199432373047	-160.7484283447266	43.8599967956543	-328.1659240722656	-175.7281494140625	246.1459808349609	-273.1586608886719	-354.5236511230469	41.04196929931641	-257.4654235839844	-329.0023803710938	39.06600570678711	-324.3602600097656	-242.1370086669922	40.1029167175293	-253.6737670898438	-144.3622894287109	42.27388763427734	-419.9715270996094	-214.0208587646484	501.0495300292969	-494.3093566894531	-187.2845306396484	773.5645751953125	-492.873779296875	168.4278869628906	214.8576507568359	-624.2054443359375	-136.6564178466797	410.2604675292969	-531.7459106445312	36.05047607421875	62.95831680297852	-569.9633178710938	79.27304077148438	103.9085922241211	-535.1492919921875	88.11267852783203	122.5345687866211	-632.7469482421875	202.4396057128906	250.4227752685547	-571.7868041992188	
439	4.38	-8.112671852111816	1008.249145507812	-448.5982360839844	64.80805206298828	996.9227294921875	-291.5856323242188	28.60460090637207	1060.902709960938	-361.4031372070312	-207.5304412841797	1266.332397460938	-273.488037109375	46.64333724975586	1193.859130859375	-354.7323608398438	0.03330265358090401	1461.98486328125	-329.5855407714844	-173.7041625976562	1379.937133789062	-278.6151123046875	32.82657241821289	1323.98681640625	-420.7601623535156	50.65030288696289	1421.921508789062	-241.0085754394531	-25.84384918212891	1426.778442382812	-140.7602233886719	12.8849458694458	1300.900756835938	-73.98808288574219	2.432111740112305	1087.892822265625	-41.09021377563477	29.40498542785645	1069.248291015625	-143.4397583007812	-129.3957214355469	861.101318359375	-65.18124389648438	-54.86075592041016	842.4631958007812	-29.86727142333984	-22.91773414611816	980.8688354492188	-24.77289009094238	-167.2183990478516	679.6844482421875	-82.496337890625	-95.28403472900391	764.7495727539062	-22.81393623352051	-157.3125305175781	781.11328125	-55.12729644775391	-112.2873077392578	1432.961059570312	-477.7101135253906	-118.8038864135742	1368.6552734375	-543.3892211914062	-96.99532318115234	1116.968505859375	-614.3837280273438	-90.56171417236328	1082.19140625	-519.840576171875	-232.1085815429688	864.3490600585938	-553.7696533203125	-178.6078948974609	851.5241088867188	-620.5225830078125	-114.0866317749023	1035.175659179688	-626.5062255859375	-224.8746337890625	672.6565551757812	-540.578369140625	-262.4498596191406	760.7307739257812	-553.2246704101562	-209.7035827636719	760.68017578125	-615.7945556640625	4.280387878417969	1629.441040039062	-316.8192749023438	-198.2789306640625	1693.1201171875	-285.2545166015625	-111.8480834960938	1688.761108398438	-193.9697723388672	-98.18898773193359	1628.652099609375	-408.3184814453125	-3.712133407592773	932.3410034179688	-173.5243225097656	-98.62372589111328	940.158935546875	-499.3747863769531	-207.5087585449219	962.1201782226562	-439.3057250976562	-126.1580657958984	946.9423828125	-184.5705718994141	-201.3403167724609	496.0001831054688	-233.1636962890625	-118.3339157104492	616.9027099609375	-195.4523468017578	-160.6222229003906	43.73601150512695	-328.0617370605469	-176.3896331787109	245.9142913818359	-272.1325378417969	-354.4791259765625	41.02501678466797	-257.3746948242188	-328.9337158203125	39.1475715637207	-324.2263793945312	-242.0738983154297	39.826171875	-253.5043182373047	-144.3694610595703	42.44460678100586	-419.8541259765625	-234.2213439941406	503.1898803710938	-483.6874389648438	-201.0359802246094	775.3600463867188	-485.5308227539062	143.9816436767578	215.4759674072266	-621.9041748046875	-158.4384307861328	412.1317443847656	-522.4358520507812	10.07398414611816	66.24798583984375	-563.8161010742188	55.07588195800781	106.2943115234375	-530.3974609375	61.43694686889648	124.9386901855469	-628.0872802734375	179.8274536132812	250.3805389404297	-570.4283447265625	
